<?xml version="1.0" encoding="UTF-8" standalone="no"?>
<!-- Created with Inkscape (http://www.inkscape.org/) -->

<svg
   version="1.1"
   id="svg2"
   width="825.71997"
   height="406.57333"
   viewBox="0 0 825.71997 406.57333"
   sodipodi:docname="AAO_logo_horiz_black.eps"
   xmlns:inkscape="http://www.inkscape.org/namespaces/inkscape"
   xmlns:sodipodi="http://sodipodi.sourceforge.net/DTD/sodipodi-0.dtd"
   xmlns="http://www.w3.org/2000/svg"
   xmlns:svg="http://www.w3.org/2000/svg">
  <defs
     id="defs6" />
  <sodipodi:namedview
     id="namedview4"
     pagecolor="#ffffff"
     bordercolor="#000000"
     borderopacity="0.25"
     inkscape:showpageshadow="2"
     inkscape:pageopacity="0.0"
     inkscape:pagecheckerboard="0"
     inkscape:deskcolor="#d1d1d1" />
  <g
     id="g8"
     inkscape:groupmode="layer"
     inkscape:label="ink_ext_XXXXXX"
     transform="matrix(1.3333333,0,0,-1.3333333,0,406.57333)">
    <g
       id="g10"
       transform="scale(0.1)">
      <path
         d="m 1709.34,2424.07 c 319.05,0 578.67,-259.62 578.67,-578.67 0,-319.05 -259.62,-578.67 -578.67,-578.67 -319.09,0 -578.67,259.62 -578.67,578.67 0,319.05 259.58,578.67 578.67,578.67 z M 1099.63,1845.4 c 0,-336.22 273.5,-609.72 609.71,-609.72 336.22,0 609.71,273.5 609.71,609.72 0,336.22 -273.49,609.71 -609.71,609.71 -336.21,0 -609.71,-273.49 -609.71,-609.71"
         style="fill:#231f20;fill-opacity:1;fill-rule:nonzero;stroke:none"
         id="path12" />
      <path
         d="m 2368.02,1845.4 c 0,-363.17 -295.5,-658.64 -658.71,-658.64 -363.15,0 -658.57,295.47 -658.57,658.64 0,363.17 295.42,658.64 658.57,658.64 363.21,0 658.71,-295.47 658.71,-658.64 z m -926.57,634.01 c -82.19,-34.8 -156.15,-85.12 -218.59,-147.53 -62.37,-62.37 -112.69,-136.39 -147.54,-218.58 -35.12,-82.8 -54.27,-173.27 -54.27,-267.9 0,-94.66 19.15,-185.1 54.27,-267.86 34.85,-82.19 85.1,-156.17 147.54,-218.62 62.37,-62.37 136.36,-112.69 218.59,-147.53 82.79,-35.09 173.19,-54.23 267.86,-54.23 94.65,0 185.12,19.14 267.93,54.23 82.18,34.84 156.22,85.16 218.58,147.53 62.44,62.37 112.7,136.43 147.54,218.62 35.09,82.76 54.27,173.2 54.27,267.86 0,94.63 -19.18,185.18 -54.27,267.97 -34.84,82.12 -85.1,156.14 -147.54,218.58 -62.44,62.37 -136.43,112.66 -218.58,147.46 -82.81,35.13 -173.28,54.28 -267.93,54.24 -94.67,0 -185.07,-19.11 -267.86,-54.24"
         style="fill:#231f20;fill-opacity:1;fill-rule:nonzero;stroke:none"
         id="path14" />
      <path
         d="m 970.699,1845.4 c 0,407.26 331.341,738.65 738.641,738.65 121.69,0 236.29,-30.12 337.62,-82.48 -5.63,5.88 -11.22,11.69 -16.7,18.1 -11.01,12.73 -25.55,25.77 -41.63,39.18 -87.31,34.3 -181.22,53.4 -279.29,53.4 -105.13,0 -205.89,-21.18 -298.51,-60.43 -91.47,-38.78 -173.88,-94.67 -243.53,-164.34 -69.6,-69.69 -125.6,-152.09 -164.38,-243.6 -39.213,-92.59 -60.436,-193.35 -60.436,-298.48 0,-105.13 21.223,-205.89 60.436,-298.44 38.78,-91.55 94.7,-173.91 164.35,-243.6 66.2,-66.16 144.13,-119.43 230.15,-157.89 30.12,0.43 59.57,-0.82 87.89,-3.73 -298.08,95.1 -514.611,374.5 -514.611,703.66"
         style="fill:#231f20;fill-opacity:1;fill-rule:nonzero;stroke:none"
         id="path16" />
      <path
         d="m 2251.42,1303.36 c 69.63,69.69 125.52,152.05 164.34,243.6 39.22,92.55 60.39,193.31 60.39,298.44 0,105.17 -21.17,205.96 -60.39,298.51 -38.82,91.48 -94.71,173.88 -164.38,243.57 -11.69,11.72 -24.27,22.4 -36.63,33.3 -15.28,-2.08 -31.47,-0.65 -48.18,3.58 171.08,-135.39 281.41,-344.36 281.41,-578.96 0,-407.26 -331.37,-738.6 -738.64,-738.6 -37.42,0 -73.92,3.65 -109.83,9.06 12.77,-5.05 25.02,-10.57 35.91,-17.09 9.69,-5.96 17.93,-11.88 25.53,-17.78 16.1,-1.01 32.08,-2.44 48.39,-2.44 105.17,0 205.92,21.21 298.47,60.43 91.56,38.79 173.89,94.71 243.61,164.38"
         style="fill:#231f20;fill-opacity:1;fill-rule:nonzero;stroke:none"
         id="path18" />
      <path
         d="m 2306.93,1247.8 c 76.93,76.93 138.47,167.69 181.2,268.55 43.41,102.41 66.6,213.42 66.6,329.05 0,115.71 -23.19,226.68 -66.6,329.09 -42.73,100.83 -104.27,191.59 -181.2,268.51 -7.45,7.45 -15.62,14.05 -23.33,21.22 -5.45,-7.28 -11.11,-14.12 -17.38,-19.57 160.86,-149.62 261.73,-362.82 261.73,-599.25 0,-450.95 -366.57,-817.89 -817.43,-818.55 5.46,-8.34 10.72,-17.12 16.1,-26.4 109.42,2.18 214.56,24.98 311.78,66.13 100.85,42.72 191.61,104.3 268.53,181.22"
         style="fill:#231f20;fill-opacity:1;fill-rule:nonzero;stroke:none"
         id="path20" />
      <path
         d="m 890.766,1845.4 c 0,451.35 367.224,818.61 818.574,818.61 61.55,0 121.44,-7.06 179.16,-19.99 -10.77,10.89 -20.01,21.86 -27.25,32.86 -49.47,9 -100.19,13.91 -151.91,13.91 -115.63,0 -226.67,-23.27 -329.05,-66.64 -100.87,-42.72 -191.62,-104.24 -268.54,-181.15 -76.93,-76.92 -138.473,-167.68 -181.238,-268.55 -43.332,-102.37 -66.524,-213.42 -66.524,-329.05 0,-115.63 23.192,-226.68 66.524,-329.05 42.765,-100.86 104.308,-191.59 181.238,-268.55 43.66,-43.65 92.19,-81.73 144.06,-114.84 13.65,2.16 27.41,4.01 41.32,5.67 -242.81,142.15 -406.364,405.68 -406.364,706.77"
         style="fill:#231f20;fill-opacity:1;fill-rule:nonzero;stroke:none"
         id="path22" />
      <path
         d="m 2362.49,1192.25 c 84.17,84.16 151.34,183.3 198.01,293.56 47.53,112.2 72.76,233.42 72.76,359.59 0,126.21 -25.23,247.47 -72.76,359.66 -46.67,110.19 -113.84,209.33 -198.01,293.49 -13.64,13.66 -28.31,26.1 -42.72,38.86 -2.94,-7.82 -6.23,-15.98 -9.67,-24.45 182.73,-164.59 297.86,-402.85 297.86,-667.56 0,-479.17 -377.01,-871.9 -850.01,-897.259 1.18,-1.782 2.11,-3.43 3.33,-5.313 4.4,-7.008 8.82,-13.098 13.19,-18.848 102.77,7.168 201.8,30.981 294.49,70.258 110.23,46.672 209.38,113.852 293.53,198.012"
         style="fill:#231f20;fill-opacity:1;fill-rule:nonzero;stroke:none"
         id="path24" />
      <path
         d="m 810.762,1845.4 c 0,495.48 403.068,898.62 898.578,898.62 53.12,0 105.06,-4.91 155.64,-13.8 5.8,7.24 12.36,15.02 18.78,22.44 -56.78,10.86 -115.02,16.66 -174.42,16.66 -126.17,0 -247.44,-25.23 -359.59,-72.76 -110.26,-46.67 -209.37,-113.84 -293.56,-198.01 -84.17,-84.16 -151.377,-183.3 -198.081,-293.53 -47.527,-112.15 -72.695,-233.48 -72.695,-359.62 0,-126.17 25.168,-247.47 72.695,-359.62 46.704,-110.23 113.911,-209.34 198.081,-293.53 29.61,-29.61 61.65,-56.27 94.77,-81.51 10.03,2.72 20.29,5.37 30.9,7.85 -224.676,163.48 -371.098,428.3 -371.098,726.81"
         style="fill:#231f20;fill-opacity:1;fill-rule:nonzero;stroke:none"
         id="path26" />
      <path
         d="m 1924.19,2799.94 c 5.7,7.02 11.03,13.97 16.05,20.89 -74.72,17.67 -151.9,27.06 -230.9,27.06 -136.63,0 -268.26,-27.28 -390.2,-78.93 -2.48,-1.03 -4.76,-2.39 -7.25,-3.47 -0.6,-1.26 -1.28,-2.54 -1.89,-3.84 -5.13,-10.53 -10.11,-20.28 -15.2,-30.11 125.96,59.19 266.43,92.41 414.54,92.41 73.84,0 145.67,-8.46 214.85,-24.01"
         style="fill:#231f20;fill-opacity:1;fill-rule:nonzero;stroke:none"
         id="path28" />
      <path
         d="m 2418.05,1136.69 c 91.48,91.43 164.24,199 214.85,318.51 51.69,122.02 78.94,253.49 78.94,390.2 0,136.64 -27.25,268.26 -78.94,390.28 -50.64,119.5 -123.41,227.03 -214.85,318.43 -23.52,23.52 -48.1,45.7 -73.62,66.68 -1.83,-8.89 -3.83,-17.68 -6.17,-26.45 213.57,-179.66 349.63,-448.63 349.63,-748.94 0,-498.96 -375.43,-911.591 -858.61,-970.951 3.79,-2.398 7.52,-4.719 11.25,-7.027 6.96,-4.262 13.66,-8.531 20.36,-13.102 82.59,12.5 162.44,35.27 238.65,67.489 119.57,50.64 227.08,123.441 318.51,214.881"
         style="fill:#231f20;fill-opacity:1;fill-rule:nonzero;stroke:none"
         id="path30" />
      <path
         d="m 730.754,1845.4 c 0,345.54 180.16,649.58 451.316,823.71 -7.34,4.01 -14.91,8.74 -22.76,13.76 -56.92,-37.46 -110.22,-80.29 -158.68,-128.76 -91.442,-91.47 -164.239,-198.97 -214.853,-318.5 -51.691,-121.95 -78.929,-253.57 -78.929,-390.21 0,-136.71 27.238,-268.18 78.929,-390.2 50.614,-119.51 123.411,-227.08 214.853,-318.51 19.89,-19.89 40.86,-38.5 62.26,-56.6 4.48,2.16 9.14,4.26 14.37,6.37 3.27,1.33 6.92,2.56 10.32,3.84 -217.783,179.66 -356.826,451.43 -356.826,755.1"
         style="fill:#231f20;fill-opacity:1;fill-rule:nonzero;stroke:none"
         id="path32" />
      <path
         d="m 1967.2,2872.05 c 2.09,7.97 2.3,15.56 1.19,22.91 -83.73,20.65 -170.36,31.43 -259.05,31.43 -110.18,0 -217.4,-16.41 -319.61,-48.06 -12.41,-10.36 -23.21,-22.09 -32.7,-34.88 110.29,39.03 228.79,60.5 352.31,60.5 88.93,0 175.28,-11.14 257.86,-31.9"
         style="fill:#231f20;fill-opacity:1;fill-rule:nonzero;stroke:none"
         id="path34" />
      <path
         d="m 650.793,1845.4 c 0,359.88 180.652,678.18 455.857,869.51 -7.91,4.05 -16.05,7.68 -24.47,10.62 -48.61,-34.78 -94.535,-73.28 -137.114,-115.86 -98.679,-98.71 -177.14,-214.63 -231.699,-343.49 -55.769,-131.8 -85.054,-273.6 -85.054,-420.78 0,-147.21 29.285,-288.98 85.054,-420.77 54.559,-128.87 133.02,-244.79 231.699,-343.5 18.641,-18.63 38.102,-36.35 57.964,-53.51 4.33,6.48 8.64,12.57 13.59,18.39 -223.85,194.19 -365.827,480.45 -365.827,799.39"
         style="fill:#231f20;fill-opacity:1;fill-rule:nonzero;stroke:none"
         id="path36" />
      <path
         d="m 2473.61,1081.13 c 98.71,98.71 177.11,214.63 231.7,343.5 55.77,131.79 85.06,273.56 85.06,420.77 0,147.18 -29.29,289.05 -85.06,420.81 -54.59,128.9 -132.99,244.75 -231.74,343.46 -36.88,36.93 -76.2,70.98 -117.67,102.02 -0.69,-9.46 -1.4,-18.57 -2.22,-27.24 251.62,-193.71 414.22,-497.67 414.22,-839.05 0,-518.56 -374.86,-950.869 -867.79,-1041.029 0.28,-1.402 0.56,-2.793 0.79,-4.25 0.99,-5.633 2.14,-11.68 4.3,-17.762 77.42,14.243 152.72,36.551 224.92,67.071 128.89,54.55 244.77,132.992 343.49,231.7"
         style="fill:#231f20;fill-opacity:1;fill-rule:nonzero;stroke:none"
         id="path38" />
      <path
         d="m 1659.37,2982.67 c -10.96,6.67 -22.01,13.19 -32.91,19.07 -35.54,-2.51 -70.83,-6.56 -105.7,-12.26 -0.82,-7.28 0.82,-14.19 4.05,-20.71 44.09,7.2 88.97,11.89 134.56,13.9"
         style="fill:#231f20;fill-opacity:1;fill-rule:nonzero;stroke:none"
         id="path40" />
      <path
         d="m 570.82,1845.4 c 0,212.27 58.567,411.06 160.114,581.36 l -8.028,-6.7 c -20.863,-18.93 -39.718,-52.41 -61.543,-91.15 -7.851,-13.95 -15.953,-28.28 -24.383,-42.34 -57.167,-138.68 -87.207,-287.25 -87.207,-441.17 0,-157.72 31.332,-309.77 91.227,-451.35 58.531,-138.29 142.555,-262.53 248.547,-368.48 21.469,-21.47 43.871,-41.8 66.769,-61.429 5.168,5.55 9.868,10.961 14.055,16.187 C 726.059,1189.32 570.82,1499.47 570.82,1845.4"
         style="fill:#231f20;fill-opacity:1;fill-rule:nonzero;stroke:none"
         id="path42" />
      <path
         d="m 2529.17,1025.57 c 105.96,105.95 190.05,230.19 248.52,368.48 59.96,141.58 91.22,293.63 91.22,451.35 0,132.09 -22.23,260.16 -64.59,381.53 -31.19,19.64 -35.21,30.75 -44.6,68.64 -4.22,16.81 -2.9,29.75 -0.86,42.8 -57.13,121.58 -134.52,231.66 -229.69,326.86 -52.04,52.05 -108.5,98.68 -168.82,139.69 -0.33,-8.89 -0.65,-17.39 -0.97,-25.63 294.96,-205.93 488.48,-547.63 488.48,-933.89 0,-511.2 -338.65,-944.72 -803.38,-1088.15 4.23,-4.988 7.89,-11.371 11.12,-18.719 35.59,11.117 70.68,23.949 105.08,38.5 138.23,58.539 262.54,142.578 368.49,248.539"
         style="fill:#231f20;fill-opacity:1;fill-rule:nonzero;stroke:none"
         id="path44" />
      <path
         d="m 2584.73,970.02 c 113.19,113.22 202.89,245.88 265.36,393.46 64.05,151.37 97.38,313.74 97.38,481.92 0,113.59 -15.56,224.39 -45.16,331.09 -6.56,3.2 -13.27,6.35 -20.1,9.57 -1.16,0.51 -2.48,1.23 -3.69,1.76 31.89,-108.71 49.31,-223.56 49.31,-342.42 0,-544.87 -359.45,-1007.298 -853.66,-1162.732 2.04,-6.316 4.22,-12.527 6.59,-18.547 37.42,11.758 74.3,25.199 110.54,40.508 147.54,62.519 280.23,152.191 393.43,265.391"
         style="fill:#231f20;fill-opacity:1;fill-rule:nonzero;stroke:none"
         id="path46" />
      <path
         d="m 2712.76,2544.22 c 0.79,9.03 0.58,17.64 -0.06,26.1 -36.42,50.32 -76.64,98 -120.51,142.66 -2.66,-2.01 -5.2,-4.05 -7.5,-5.91 l -8.42,-6.43 c 49.93,-50.64 95.42,-105.62 135.99,-164.3 0.14,2.72 0.26,5.01 0.5,7.88"
         style="fill:#231f20;fill-opacity:1;fill-rule:nonzero;stroke:none"
         id="path48" />
      <path
         d="m 490.813,1845.4 c 0,116.64 16.816,229.33 47.566,336.22 -1.863,-0.71 -3.582,-1.87 -5.449,-2.47 -6.02,-1.9 -11.617,-3.8 -17.422,-5.7 -29.028,-105.74 -44.262,-215.57 -44.262,-328.05 0,-168.18 33.297,-330.55 97.383,-481.92 62.441,-147.58 152.129,-280.2 265.355,-393.46 17.711,-17.719 36.059,-34.641 54.739,-51.192 7.023,2.363 13.98,5.113 20.711,8.492 -256.207,223.56 -418.621,552.11 -418.621,918.08"
         style="fill:#231f20;fill-opacity:1;fill-rule:nonzero;stroke:none"
         id="path50" />
      <path
         d="m 2569.32,2714.27 c -1.33,4.47 -2.86,13.62 -4.59,25.59 -60.54,57.92 -126.27,109.33 -196.67,153.62 -1.12,-7.77 -2.12,-15.19 -2.91,-21.93 75.74,-48.57 145.89,-105.1 209.01,-168.71 -1.33,2.32 -2.95,5.55 -4.84,11.43"
         style="fill:#231f20;fill-opacity:1;fill-rule:nonzero;stroke:none"
         id="path52" />
      <path
         d="m 2640.25,914.449 c 120.51,120.511 215.82,261.531 282.24,418.451 68.17,161.19 103.55,333.82 103.55,512.5 0,61.23 -4.44,121.62 -12.65,181.16 -1.68,5.49 -3.41,10.9 -5.12,16.42 -5.35,17.84 -10.98,36.27 -18,55.09 -3.07,8.35 -7.31,15.59 -12.05,22.33 19.22,-88.68 29.61,-180.66 29.61,-275 0,-573.25 -373.56,-1060.599 -889.9,-1232.259 5.69,-4.801 11.8,-9.18 18.17,-13.262 28.85,9.902 57.53,20.43 85.75,32.402 156.92,66.391 297.93,161.739 418.4,282.168"
         style="fill:#231f20;fill-opacity:1;fill-rule:nonzero;stroke:none"
         id="path54" />
      <path
         d="m 447.152,2149.65 c -7.093,-2.65 -13.906,-5.31 -20.644,-7.96 -22.188,-96.2 -33.871,-195.21 -33.871,-296.29 0,-178.68 35.343,-351.31 103.551,-512.5 66.425,-156.92 161.765,-297.94 282.207,-418.451 3.367,-3.359 6.918,-6.48 10.32,-9.801 0.719,0.063 1.43,0.102 2.148,0.133 7.746,0.387 15.524,0.86 23.301,1.36 -248.219,236.639 -403.359,570.069 -403.359,939.259 0,104.81 12.8,206.61 36.347,304.25"
         style="fill:#231f20;fill-opacity:1;fill-rule:nonzero;stroke:none"
         id="path56" />
      <path
         d="m 2548.56,2859.79 c -51.72,42.91 -106.57,81.62 -164.17,116.07 -1.68,-6.23 -3.18,-12.54 -4.65,-18.85 61.15,-36.99 118.82,-79.15 172.87,-125.39 -1.32,9.54 -2.69,18.93 -4.05,28.17"
         style="fill:#231f20;fill-opacity:1;fill-rule:nonzero;stroke:none"
         id="path58" />
      <path
         d="m 2526.73,2975.79 c -36.27,26.31 -73.8,50.82 -112.52,73.55 -3.04,-4.66 -5.94,-9.57 -8.62,-14.95 43.9,-25.84 86.45,-53.73 127.13,-84.12 -1.9,8.89 -3.91,17.35 -5.99,25.52"
         style="fill:#231f20;fill-opacity:1;fill-rule:nonzero;stroke:none"
         id="path60" />
      <path
         d="m 2994.86,1302.36 c 72.41,170.94 109.69,353.85 109.69,543.04 0,14.23 -0.61,28.35 -1.04,42.51 -1.69,1.43 -3.41,3.01 -5.13,4.45 -3.99,3.33 -7.99,7.02 -12,10.5 0.78,-19.07 1.46,-38.17 1.46,-57.46 0,-579.52 -359.59,-1076.298 -867.25,-1279.779 9.89,-2.441 19.82,-4.621 29.93,-6.461 0.64,0.25 1.29,0.469 1.9,0.719 166.28,70.371 315.65,171.332 443.39,299.039 127.74,127.723 228.69,277.192 299.05,443.442"
         style="fill:#231f20;fill-opacity:1;fill-rule:nonzero;stroke:none"
         id="path62" />
      <path
         d="m 356.898,2111.61 c -6.418,-3.07 -12.687,-6.2 -18.851,-9.34 -15.664,-83.96 -23.945,-169.7 -23.945,-256.87 0,-189.19 37.386,-372.13 109.714,-543.04 64.778,-153.05 155.786,-291.6 269.411,-412.34 6.019,2.152 12.078,4.218 18.351,5.718 C 475.973,1143.18 330.84,1477.57 330.84,1845.4 c 0,91.08 9.105,180.01 26.058,266.21"
         style="fill:#231f20;fill-opacity:1;fill-rule:nonzero;stroke:none"
         id="path64" />
      <path
         d="m 269.797,2078.78 c -5.418,-1.25 -10.895,-2.61 -16.344,-4.05 -11.758,-75.19 -17.89,-151.76 -17.89,-229.33 0,-199.72 39.398,-392.85 115.925,-573.64 65.883,-155.78 157.285,-297.408 271.27,-421.682 4.586,3.012 9.101,6.012 13.476,8.883 -239.043,259.879 -385.328,606.349 -385.328,986.439 0,79.43 6.594,157.36 18.891,233.38"
         style="fill:#231f20;fill-opacity:1;fill-rule:nonzero;stroke:none"
         id="path66" />
      <path
         d="m 3067.27,1271.76 c 65.66,155.27 103.8,319.65 113.34,489.48 -5.45,8.17 -10.33,16.48 -14.34,25.09 -21.73,-542.89 -341.56,-1010.1 -799.97,-1242.42 0.35,0 0.75,-0.082 1.14,-0.121 9.75,-1.121 18.32,-2.25 26.42,-3.48 131.54,69.062 251.63,157.132 357.48,263.031 135.06,134.988 241.59,292.77 315.93,468.42"
         style="fill:#231f20;fill-opacity:1;fill-rule:nonzero;stroke:none"
         id="path68" />
      <path
         d="m 2475.91,512.379 c 4.36,-2.668 8.88,-5.617 13.54,-8.879 115.49,67.199 221.99,148.781 317.47,244.27 142.28,142.308 254.47,308.44 332.68,493.37 56.56,133.7 93.42,273.78 110.61,418.01 -3.22,9.5 -6.77,17.78 -10.89,25.06 -52.41,-501.17 -346.61,-931.198 -763.41,-1171.831"
         style="fill:#231f20;fill-opacity:1;fill-rule:nonzero;stroke:none"
         id="path70" />
      <path
         d="m 183.23,2036.92 c -1.355,-1.47 -2.761,-2.73 -4.085,-4.3 -4.516,-5.42 -8.571,-10.29 -12.403,-14.81 -6.234,-56.92 -9.711,-114.34 -9.711,-172.41 0,-210.23 41.399,-413.64 121.977,-604.26 67.676,-159.83 160.797,-305.57 276.652,-434.07 4.223,2.539 8.418,5.078 12.61,7.68 -246.821,272.97 -397.368,634.57 -397.368,1030.65 0,64.88 4.52,128.72 12.328,191.52"
         style="fill:#231f20;fill-opacity:1;fill-rule:nonzero;stroke:none"
         id="path72" />
      <path
         d="m 2552.83,464.75 c 5.09,-1.98 10.46,-3.738 16.1,-5.238 105.94,65.816 204.26,143.539 293.52,232.769 149.54,149.481 267.33,324.049 349.55,518.319 26.96,63.74 49.26,128.97 67.82,195.21 0.72,17.02 1.08,34.4 0.76,52.33 -103.21,-418.66 -369.55,-773.749 -727.75,-993.39"
         style="fill:#231f20;fill-opacity:1;fill-rule:nonzero;stroke:none"
         id="path74" />
      <path
         d="m 283.809,1053.24 c 56.207,-101.111 123.089,-195.662 199.8,-282.951 4.227,1.68 8.457,3.621 12.653,5.473 -92.801,105.078 -172.09,222.207 -235.387,348.808 8.711,-25.59 16.59,-50.1 22.934,-71.33"
         style="fill:#231f20;fill-opacity:1;fill-rule:nonzero;stroke:none"
         id="path76" />
      <path
         d="m 94.1602,1943.54 c -5.4141,-4.22 -9.6094,-6.52 -13.0821,-7.59 -1.6133,-30.04 -2.6172,-60.22 -2.6172,-90.55 0,-169.54 25.8401,-334.85 76.1681,-493.21 7.992,-7.25 15.195,-14.66 21.008,-22.51 -54.664,162.12 -84.7386,335.43 -84.7386,515.72 0,32.98 1.293,65.67 3.2618,98.14"
         style="fill:#231f20;fill-opacity:1;fill-rule:nonzero;stroke:none"
         id="path78" />
      <path
         d="M 11.6094,1871.28 C 7.55859,1862.43 3.69141,1852.64 0,1842.35 0.210938,1705.39 16.6992,1571.08 48.4219,1440.6 c 4.4453,-5.9 9.7851,-11.54 15.5937,-17.09 -34.6289,134.96 -53.0468,276.29 -53.0468,421.89 0,8.68 0.5,17.24 0.6406,25.88"
         style="fill:#231f20;fill-opacity:1;fill-rule:nonzero;stroke:none"
         id="path80" />
      <path
         d="m 2465.94,325.449 c -15.31,-7.66 -30.78,-15.039 -46.38,-22.25 -2.37,-4.551 -3.8,-9.449 -4.55,-14.699 22.9,10.41 45.52,21.262 67.85,32.629 -5.58,2.191 -11.26,3.621 -16.92,4.32"
         style="fill:#231f20;fill-opacity:1;fill-rule:nonzero;stroke:none"
         id="path82" />
      <path
         d="m 294.281,886.211 c 30.68,-45.231 63.586,-88.961 98.567,-131.152 5.453,-0.649 10.968,-1.059 16.488,-1.059 -40.82,48.621 -79,99.422 -114.27,152.391 -0.425,-6.762 -0.679,-13.52 -0.785,-20.18"
         style="fill:#231f20;fill-opacity:1;fill-rule:nonzero;stroke:none"
         id="path84" />
      <path
         d="m 2760.15,497.539 c 40.62,31.762 79.9,65.352 117.75,100.922 10.36,13.609 19.89,28.098 28.63,43.508 -60.07,-59.778 -124.65,-114.918 -193.04,-165.25 16.2,5.953 31.74,12.91 46.66,20.82"
         style="fill:#231f20;fill-opacity:1;fill-rule:nonzero;stroke:none"
         id="path86" />
      <path
         d="m 2555.41,281.52 c -42.01,-22.848 -85.23,-43.668 -129.18,-63.102 0.57,-2.129 1.17,-4.359 1.72,-6.527 0.28,-1.172 0.43,-2.282 0.68,-3.43 47.84,21.051 94.67,43.879 140.19,68.82 -4.41,0.938 -8.86,2.309 -13.41,4.239"
         style="fill:#231f20;fill-opacity:1;fill-rule:nonzero;stroke:none"
         id="path88" />
      <path
         d="M 2711.97,281.949 C 2625.66,226.391 2534.69,177.5 2439.41,136.641 c 0.54,-2.95 1.33,-5.743 2.01,-8.61 96.93,41.399 189.33,90.86 277.15,147.399 -1.78,2.281 -4.16,4.371 -6.6,6.519"
         style="fill:#231f20;fill-opacity:1;fill-rule:nonzero;stroke:none"
         id="path90" />
      <path
         d="m 2471.96,55.6211 c 86.67,37 169.97,79.9099 249.7,128.5389 1.21,3.789 2.65,7.539 3.65,11.328 -81.94,-50.609 -167.79,-95.449 -257.18,-133.6364 1.25,-2.1407 2.55,-4.1407 3.83,-6.2305"
         style="fill:#231f20;fill-opacity:1;fill-rule:nonzero;stroke:none"
         id="path92" />
      <path
         d="m 2539.53,0 c 38.18,17.168 75.81,35.3281 112.7,54.7617 2.97,3.6563 5.94,7.3086 8.99,11.4297 -42.29,-22.7109 -85.66,-43.6523 -129.72,-63.40234 2.69,-0.9375 5.31,-2.148435 8.03,-2.78906"
         style="fill:#231f20;fill-opacity:1;fill-rule:nonzero;stroke:none"
         id="path94" />
      <path
         d="m 1527.82,1755.22 c 9.83,-91.48 79.22,-151.88 156.24,-164.53 101.02,-16.59 178.69,46.1 206.15,112.98 22.98,56.14 13.27,158.72 13.27,236.07 0,68.9 6.73,127.58 0,196.14 -9.9,100.94 -101.02,178.58 -211.1,166.21 -73.15,-8.2 -128.79,-59.24 -151.22,-113.02 -26.02,-62.22 -13.34,-145.74 -13.34,-242.69 0,-62.69 -6.34,-131.66 0,-191.16"
         style="fill:#231f20;fill-opacity:1;fill-rule:evenodd;stroke:none"
         id="path96" />
      <path
         d="m 1950,1708.69 c -19.25,1.72 -25.81,-27.67 -39.86,-51.54 -33.19,-56.35 -87.1,-99.79 -169.54,-106.35 -79.08,-6.31 -139.65,20.18 -177.87,53.15 -13.19,11.41 -25.44,24.63 -39.93,48.18 -11.03,18.14 -18.52,52.83 -31.53,56.56 -45.97,13.05 -17.57,-50.33 -9.97,-64.8 37.81,-72.19 110.5,-120.55 211.08,-134.71 -0.96,-24.73 1.47,-52.91 -0.52,-76.66 h -35.57 c -15.77,0 -28.63,-12.84 -28.63,-28.68 0,-15.89 12.86,-28.71 28.63,-28.71 h 119.4 c 15.83,0 28.68,12.82 28.68,28.71 0,15.84 -12.85,28.68 -28.68,28.68 h -36.74 c 0,26.12 0,52.22 0,78.35 100.3,8.96 174.06,63.66 211.05,134.67 8.89,16.92 31.9,60.25 0,63.15"
         style="fill:#231f20;fill-opacity:1;fill-rule:evenodd;stroke:none"
         id="path98" />
      <path
         d="m 3878.2,2376.28 -82.46,211 -82,-211 z m 10.61,-26.67 h -185.67 l -29,-75.1 h -34.1 l 138.65,345.51 h 34.53 l 138.69,-345.51 h -34.1 l -29,75.1"
         style="fill:#231f20;fill-opacity:1;fill-rule:nonzero;stroke:none"
         id="path100" />
      <path
         d="m 4172.94,2504.82 v -230.31 h -27.61 l -1.87,35.04 c -8.29,-12.33 -19.1,-22 -32.44,-29.07 -13.37,-7.07 -27.6,-10.58 -42.64,-10.58 -25.2,0 -46.6,8.83 -64.26,26.48 -17.66,17.66 -26.45,39.1 -26.45,64.26 v 144.18 h 30.38 v -140.94 c 0,-18.45 6.44,-34.16 19.35,-47.2 12.9,-13.05 28.69,-19.61 47.42,-19.61 18.75,0 34.79,6.56 48.17,19.61 13.34,13.04 20.04,28.75 20.04,47.2 v 140.94 h 29.91"
         style="fill:#231f20;fill-opacity:1;fill-rule:nonzero;stroke:none"
         id="path102" />
      <path
         d="m 4257.53,2280.95 c -17.52,7.41 -29.95,16.58 -37.31,27.66 l 17.49,19.32 c 5.22,-8.87 14.95,-16.53 29.26,-22.8 14.28,-6.27 28.95,-9.57 44.02,-9.9 16.25,-0.33 29.83,3.13 40.72,10.35 10.93,7.23 16.36,17.28 16.36,30.2 0,5.21 -1.22,9.86 -3.68,14.06 -2.46,4.14 -4.97,7.5 -7.61,10.11 -2.62,2.64 -7.21,5.3 -13.8,8.05 -6.63,2.82 -11.53,4.69 -14.78,5.77 -3.2,1.07 -9.25,2.84 -18.16,5.33 -2.15,0.56 -3.67,1.03 -4.62,1.36 -8.9,2.47 -16.03,4.63 -21.4,6.43 -5.41,1.88 -11.75,4.61 -19.14,8.28 -7.35,3.71 -13.04,7.64 -17.05,11.76 -3.96,4.18 -7.5,9.55 -10.59,16.13 -3.06,6.6 -4.61,13.92 -4.61,21.88 0,19.65 8.14,35.33 24.42,47.01 16.29,11.64 35.18,17.48 56.66,17.48 14.14,0 28.05,-2.45 41.72,-7.34 13.65,-4.91 24.61,-11.08 32.9,-18.48 l -17.95,-20.68 c -12.58,13.47 -29.77,20.68 -51.62,21.62 -14.7,0.66 -27.69,-2.23 -38.92,-8.5 -11.17,-6.31 -16.8,-15.43 -16.8,-27.4 0,-12.6 4.83,-21.9 14.5,-27.89 9.69,-5.98 24.06,-11.45 43.1,-16.35 10.45,-2.76 18.01,-4.9 22.78,-6.43 4.75,-1.54 11.46,-4.25 20.04,-8.06 8.61,-3.87 14.92,-7.87 18.88,-11.97 4.01,-4.18 7.72,-9.69 11.06,-16.59 3.39,-6.91 5.09,-14.84 5.09,-23.75 0,-19.65 -8.22,-35.86 -24.65,-48.61 -16.45,-12.73 -36.91,-19.1 -61.5,-19.1 -19.02,0 -37.34,3.67 -54.81,11.05"
         style="fill:#231f20;fill-opacity:1;fill-rule:nonzero;stroke:none"
         id="path104" />
      <path
         d="m 4568.34,2285.58 c -10.45,-10.47 -24.43,-15.68 -41.91,-15.68 -18.42,0 -33.19,5.55 -44.22,16.56 -11.07,11.07 -16.58,25.52 -16.58,43.34 v 151.09 h -31.79 v 23.93 h 31.79 v 78.36 h 30.39 v -78.36 h 59.41 v -23.93 h -59.41 V 2329.8 c 0,-10.74 2.77,-18.96 8.32,-24.67 5.47,-5.68 13.18,-8.49 22.98,-8.49 9.85,0 17.81,3.2 23.99,9.66 l 17.03,-20.72"
         style="fill:#231f20;fill-opacity:1;fill-rule:nonzero;stroke:none"
         id="path106" />
      <path
         d="m 4756.85,2498.39 -14.27,-22.12 c -8.65,4 -19.07,5.97 -31.35,5.97 -18.1,0 -34.02,-7.05 -47.66,-21.19 -13.71,-14.12 -20.54,-31.46 -20.54,-52.03 v -134.51 h -30.37 v 230.31 h 28.06 l 1.41,-37.77 c 8.28,12.89 18.63,23.2 31.1,30.88 12.43,7.67 25.56,11.5 39.35,11.5 18.76,0 33.52,-3.67 44.27,-11.04"
         style="fill:#231f20;fill-opacity:1;fill-rule:nonzero;stroke:none"
         id="path108" />
      <path
         d="m 4941.6,2339.92 v 29.94 l -45.6,9.67 c -29.19,5.83 -50.53,4.84 -64.05,-2.99 -13.51,-7.81 -20.29,-19.43 -20.29,-34.79 0,-13.18 4.18,-23.93 12.48,-32.2 8.29,-8.31 19.32,-12.48 33.15,-12.48 28.26,0 56.38,14.27 84.31,42.85 z m 3.93,147.89 c 17.01,-14.45 25.54,-35.33 25.54,-62.66 v -150.64 h -27.2 l -1.37,37.77 c -29.16,-28.26 -59.73,-42.38 -91.66,-42.38 -20.57,0 -37.38,6.62 -50.42,19.82 -13.08,13.18 -19.61,30.1 -19.61,50.67 0,23.35 9.44,41.38 28.33,54.14 18.89,12.71 47.69,15.27 86.36,7.58 l 46.1,-8.74 v 33.17 c 0,19.02 -5.92,33.22 -17.77,42.6 -11.82,9.37 -27.26,14.06 -46.28,14.06 -32.23,0 -54.97,-11.84 -68.19,-35.47 l -21.2,18.42 c 17.85,28.87 48.23,43.28 91.26,43.28 27,0 49.03,-7.21 66.11,-21.62"
         style="fill:#231f20;fill-opacity:1;fill-rule:nonzero;stroke:none"
         id="path110" />
      <path
         d="m 5046.77,2286.46 c -11.08,11.07 -16.59,25.52 -16.59,43.34 v 290.22 h 29.95 l 0.44,-290.22 c 0,-10.74 2.7,-18.96 8.07,-24.67 5.37,-5.68 12.97,-8.49 22.81,-8.49 10.13,0 18.28,3.2 24.41,9.66 l 17.04,-20.72 c -10.45,-10.47 -24.4,-15.68 -41.91,-15.68 -18.46,0 -33.17,5.55 -44.22,16.56"
         style="fill:#231f20;fill-opacity:1;fill-rule:nonzero;stroke:none"
         id="path112" />
      <path
         d="m 5173.03,2504.82 h 30.38 v -230.31 h -30.38 z m -0.73,50.45 c -4.43,4.47 -6.66,9.72 -6.66,15.89 0,6.18 2.23,11.43 6.66,15.91 4.48,4.47 9.77,6.7 15.9,6.7 6.17,0 11.47,-2.23 15.9,-6.7 4.46,-4.48 6.7,-9.73 6.7,-15.91 0,-6.17 -2.24,-11.42 -6.7,-15.89 -4.43,-4.45 -9.73,-6.66 -15.9,-6.66 -6.13,0 -11.42,2.21 -15.9,6.66"
         style="fill:#231f20;fill-opacity:1;fill-rule:nonzero;stroke:none"
         id="path114" />
      <path
         d="m 5432.55,2339.92 v 29.94 l -45.64,9.67 c -29.16,5.83 -50.48,4.84 -64,-2.99 -13.53,-7.81 -20.29,-19.43 -20.29,-34.79 0,-13.18 4.17,-23.93 12.47,-32.2 8.28,-8.31 19.3,-12.48 33.15,-12.48 28.25,0 56.34,14.27 84.31,42.85 z m 3.89,147.89 c 17.05,-14.45 25.59,-35.33 25.59,-62.66 v -150.64 h -27.19 l -1.39,37.77 c -29.16,-28.26 -59.73,-42.38 -91.65,-42.38 -20.6,0 -37.39,6.62 -50.47,19.82 -13.06,13.18 -19.56,30.1 -19.56,50.67 0,23.35 9.43,41.38 28.32,54.14 18.88,12.71 47.68,15.27 86.38,7.58 l 46.08,-8.74 v 33.17 c 0,19.02 -5.92,33.22 -17.74,42.6 -11.82,9.37 -27.24,14.06 -46.3,14.06 -32.24,0 -54.97,-11.84 -68.17,-35.47 l -21.19,18.42 c 17.79,28.87 48.18,43.28 91.18,43.28 27.04,0 49.09,-7.21 66.11,-21.62"
         style="fill:#231f20;fill-opacity:1;fill-rule:nonzero;stroke:none"
         id="path116" />
      <path
         d="m 5704.48,2483.88 c 17.04,-17.05 25.59,-38.32 25.59,-63.81 v -145.56 h -30.42 v 142.79 c 0,18.13 -6.38,33.48 -19.09,46.06 -12.78,12.63 -28.52,18.88 -47.22,18.88 -19.08,0 -35.18,-6.4 -48.37,-19.31 -13.23,-12.9 -19.82,-28.58 -19.82,-47 v -141.42 h -30.42 v 230.31 h 28.1 l 1.38,-34.53 c 18.12,26.09 43.6,39.14 76.47,39.14 25.48,0 46.75,-8.52 63.8,-25.55"
         style="fill:#231f20;fill-opacity:1;fill-rule:nonzero;stroke:none"
         id="path118" />
      <path
         d="m 3878.2,1886.99 -82.46,210.97 -82,-210.97 z m 10.61,-26.76 h -185.67 l -29,-75.08 h -34.1 l 138.65,345.51 h 34.53 l 138.69,-345.51 h -34.1 l -29,75.08"
         style="fill:#231f20;fill-opacity:1;fill-rule:nonzero;stroke:none"
         id="path120" />
      <path
         d="m 4001.46,1814.64 c -19.79,22.74 -29.7,51.29 -29.7,85.67 0,34.39 9.91,62.97 29.7,85.72 19.81,22.69 45.98,34.08 78.56,34.08 23.65,0 44.37,-7.05 62.22,-21.19 v -31.35 c -16.01,17.52 -35.83,26.27 -59.48,26.27 -24.54,0 -44.25,-8.83 -59.18,-26.48 -14.89,-17.66 -22.34,-40.02 -22.34,-67.05 0,-26.7 7.45,-48.99 22.34,-66.78 14.93,-17.81 34.64,-26.72 59.18,-26.72 23.98,0 43.8,8.59 59.48,25.82 v -30.9 c -17.23,-14.12 -37.95,-21.19 -62.22,-21.19 -32.58,0 -58.75,11.37 -78.56,34.1"
         style="fill:#231f20;fill-opacity:1;fill-rule:nonzero;stroke:none"
         id="path122" />
      <path
         d="m 4344.61,1834.43 c 14.89,17.83 22.34,39.8 22.34,65.88 0,26.42 -7.45,48.45 -22.34,66.11 -14.88,17.66 -34.49,26.52 -58.71,26.52 -24.3,0 -43.87,-8.86 -58.75,-26.52 -14.92,-17.66 -22.35,-39.69 -22.35,-66.11 0,-26.08 7.43,-48.05 22.35,-65.88 14.88,-17.81 34.45,-26.68 58.75,-26.68 24.22,0 43.83,8.87 58.71,26.68 z m -138.44,-19.32 c -20.54,23.03 -30.85,51.43 -30.85,85.2 0,33.81 10.31,62.2 30.85,85.25 20.59,23.03 47.15,34.55 79.73,34.55 32.51,0 59.18,-11.52 79.9,-34.55 20.72,-23.05 31.11,-51.44 31.11,-85.25 0,-33.77 -10.39,-62.17 -31.11,-85.2 -20.72,-23.06 -47.39,-34.57 -79.9,-34.57 -32.58,0 -59.14,11.51 -79.73,34.57"
         style="fill:#231f20;fill-opacity:1;fill-rule:nonzero;stroke:none"
         id="path124" />
      <path
         d="m 4628.81,2015.5 v -230.35 h -27.65 l -1.83,35 c -8.29,-12.25 -19.13,-21.93 -32.47,-29 -13.34,-7.07 -27.58,-10.61 -42.61,-10.61 -25.2,0 -46.64,8.83 -64.31,26.49 -17.62,17.67 -26.44,39.08 -26.44,64.27 v 144.2 h 30.42 v -140.99 c 0,-18.38 6.41,-34.16 19.32,-47.21 12.9,-13.07 28.71,-19.55 47.42,-19.55 18.74,0 34.82,6.48 48.16,19.55 13.37,13.05 20.05,28.83 20.05,47.21 v 140.99 h 29.94"
         style="fill:#231f20;fill-opacity:1;fill-rule:nonzero;stroke:none"
         id="path126" />
      <path
         d="m 4713.36,1791.62 c -17.48,7.34 -29.95,16.58 -37.31,27.63 l 17.52,19.36 c 5.2,-8.93 14.96,-16.51 29.28,-22.81 14.26,-6.31 28.89,-9.63 43.96,-9.93 16.3,-0.27 29.85,3.19 40.77,10.39 10.92,7.21 16.36,17.27 16.36,30.16 0,5.23 -1.26,9.92 -3.72,14.02 -2.45,4.18 -4.98,7.58 -7.56,10.16 -2.64,2.6 -7.21,5.31 -13.84,8.09 -6.59,2.75 -11.53,4.68 -14.74,5.76 -3.21,1.05 -9.26,2.81 -18.21,5.27 -2.16,0.65 -3.67,1.08 -4.61,1.37 -8.87,2.48 -16.01,4.61 -21.4,6.48 -5.38,1.84 -11.75,4.61 -19.11,8.3 -7.39,3.68 -13.05,7.56 -17.05,11.74 -3.99,4.1 -7.53,9.51 -10.59,16.11 -3.07,6.61 -4.61,13.87 -4.61,21.88 0,19.69 8.14,35.33 24.39,46.99 16.29,11.68 35.18,17.52 56.66,17.52 14.13,0 28.05,-2.44 41.74,-7.38 13.62,-4.94 24.61,-11.06 32.91,-18.42 l -17.99,-20.76 c -12.54,13.55 -29.76,20.76 -51.58,21.66 -14.75,0.62 -27.72,-2.21 -38.93,-8.5 -11.21,-6.31 -16.82,-15.47 -16.82,-27.44 0,-12.58 4.86,-21.87 14.52,-27.85 9.69,-5.98 24.04,-11.43 43.07,-16.33 10.44,-2.81 18.05,-4.94 22.81,-6.48 4.76,-1.53 11.42,-4.22 20.05,-8.09 8.6,-3.81 14.89,-7.77 18.88,-11.97 4,-4.1 7.67,-9.65 11.07,-16.56 3.39,-6.94 5.05,-14.83 5.05,-23.73 0,-19.67 -8.24,-35.86 -24.66,-48.58 -16.44,-12.75 -36.9,-19.14 -61.49,-19.14 -19.04,0 -37.3,3.71 -54.82,11.08"
         style="fill:#231f20;fill-opacity:1;fill-rule:nonzero;stroke:none"
         id="path128" />
      <path
         d="m 5019.18,1796.22 c -10.46,-10.44 -24.39,-15.68 -41.89,-15.68 -18.44,0 -33.19,5.51 -44.26,16.62 -11.02,11.04 -16.57,25.45 -16.57,43.28 v 151.1 h -31.79 v 23.96 h 31.79 v 78.28 h 30.42 v -78.28 h 59.39 v -23.96 h -59.39 v -151.1 c 0,-10.76 2.75,-19 8.3,-24.64 5.5,-5.67 13.18,-8.54 23.01,-8.54 9.85,0 17.82,3.22 23.98,9.69 l 17.01,-20.73"
         style="fill:#231f20;fill-opacity:1;fill-rule:nonzero;stroke:none"
         id="path130" />
      <path
         d="m 5066.61,2015.5 h 30.37 v -230.35 h -30.37 z m -0.72,50.43 c -4.43,4.43 -6.66,9.77 -6.66,15.9 0,6.12 2.23,11.45 6.66,15.88 4.47,4.43 9.76,6.68 15.9,6.68 6.15,0 11.46,-2.25 15.9,-6.68 4.45,-4.43 6.69,-9.76 6.69,-15.88 0,-6.13 -2.24,-11.47 -6.69,-15.9 -4.44,-4.43 -9.75,-6.68 -15.9,-6.68 -6.14,0 -11.43,2.25 -15.9,6.68"
         style="fill:#231f20;fill-opacity:1;fill-rule:nonzero;stroke:none"
         id="path132" />
      <path
         d="m 5181.17,1814.64 c -19.78,22.74 -29.7,51.29 -29.7,85.67 0,34.39 9.92,62.97 29.7,85.72 19.83,22.69 45.99,34.08 78.55,34.08 23.67,0 44.39,-7.05 62.19,-21.19 v -31.35 c -15.96,17.52 -35.79,26.27 -59.42,26.27 -24.59,0 -44.31,-8.83 -59.18,-26.48 -14.93,-17.66 -22.36,-40.02 -22.36,-67.05 0,-26.7 7.43,-48.99 22.36,-66.78 14.87,-17.81 34.59,-26.72 59.18,-26.72 23.96,0 43.74,8.59 59.42,25.82 v -30.9 c -17.18,-14.12 -37.92,-21.19 -62.19,-21.19 -32.56,0 -58.72,11.37 -78.55,34.1"
         style="fill:#231f20;fill-opacity:1;fill-rule:nonzero;stroke:none"
         id="path134" />
      <path
         d="m 3922.22,1363.79 c 25.94,28.42 38.92,63.32 38.92,104.82 0,41.72 -12.98,76.83 -38.92,105.23 -25.95,28.4 -59.22,42.6 -99.78,42.6 -40.51,0 -73.84,-14.2 -99.94,-42.6 -26.13,-28.4 -39.18,-63.51 -39.18,-105.23 0,-41.5 13.05,-76.4 39.18,-104.82 26.1,-28.4 59.43,-42.6 99.94,-42.6 40.56,0 73.83,14.2 99.78,42.6 z m -220.44,-21.19 c -31.94,34.25 -47.93,76.23 -47.93,126.01 0,49.72 15.99,91.72 47.93,125.95 31.93,34.24 72.16,51.37 120.66,51.37 48.23,0 88.38,-17.13 120.46,-51.37 32.12,-34.23 48.15,-76.23 48.15,-125.95 0,-49.78 -16.03,-91.76 -48.15,-126.01 -32.08,-34.24 -72.23,-51.39 -120.46,-51.39 -48.5,0 -88.73,17.15 -120.66,51.39"
         style="fill:#231f20;fill-opacity:1;fill-rule:nonzero;stroke:none"
         id="path136" />
      <path
         d="m 4219.71,1345.12 c 14.88,17.81 22.34,39.78 22.34,65.88 0,26.38 -7.46,48.45 -22.34,66.1 -14.92,17.66 -34.5,26.49 -58.75,26.49 -19.96,0 -37.09,-6.6 -51.37,-19.81 -14.3,-13.2 -23.42,-30.25 -27.42,-51.14 v -43.3 c 4,-20.86 13.12,-37.92 27.42,-51.14 14.28,-13.18 31.41,-19.78 51.37,-19.78 24.25,0 43.83,8.9 58.75,26.7 z m 22.34,151.3 c 19.61,-22.83 29.48,-51.3 29.48,-85.42 0,-33.79 -9.87,-62.21 -29.48,-85.18 -19.68,-23.09 -45.34,-34.61 -76.95,-34.61 -35.93,0 -64.05,15.35 -84.3,46.09 l -0.94,-41.48 h -27.6 v 345.5 h 29.91 v -155.25 c 19.69,29.8 47.28,44.71 82.93,44.71 31.61,0 57.27,-11.43 76.95,-34.36"
         style="fill:#231f20;fill-opacity:1;fill-rule:nonzero;stroke:none"
         id="path138" />
      <path
         d="m 4342.82,1302.3 c -17.51,7.35 -29.91,16.59 -37.29,27.62 l 17.47,19.36 c 5.26,-8.91 15,-16.53 29.28,-22.84 14.26,-6.27 28.97,-9.59 44,-9.86 16.25,-0.33 29.87,3.15 40.77,10.35 10.88,7.23 16.35,17.25 16.35,30.16 0,5.25 -1.21,9.9 -3.66,14.06 -2.47,4.18 -5.02,7.54 -7.65,10.16 -2.6,2.6 -7.21,5.25 -13.81,8.03 -6.6,2.77 -11.49,4.7 -14.74,5.78 -3.25,1.03 -9.29,2.85 -18.16,5.29 -2.16,0.6 -3.71,1.09 -4.62,1.37 -8.93,2.46 -16.07,4.61 -21.44,6.44 -5.37,1.84 -11.76,4.61 -19.11,8.3 -7.39,3.71 -13.08,7.6 -17.05,11.76 -3.99,4.14 -7.53,9.51 -10.58,16.11 -3.11,6.62 -4.63,13.91 -4.63,21.89 0,19.65 8.14,35.34 24.43,46.98 16.27,11.68 35.16,17.52 56.67,17.52 14.13,0 28,-2.45 41.67,-7.39 13.69,-4.92 24.65,-11.05 32.93,-18.43 l -17.93,-20.73 c -12.62,13.52 -29.81,20.73 -51.62,21.66 -14.74,0.63 -27.71,-2.22 -38.93,-8.53 -11.21,-6.27 -16.79,-15.41 -16.79,-27.39 0,-12.61 4.82,-21.9 14.49,-27.9 9.65,-5.98 24.04,-11.41 43.11,-16.33 10.41,-2.77 18.01,-4.94 22.77,-6.44 4.77,-1.51 11.46,-4.26 20.04,-8.07 8.57,-3.83 14.88,-7.83 18.89,-11.97 3.96,-4.14 7.67,-9.65 11.03,-16.59 3.39,-6.91 5.12,-14.84 5.12,-23.71 0,-19.66 -8.22,-35.89 -24.66,-48.63 -16.44,-12.71 -36.94,-19.12 -61.51,-19.12 -19.05,0 -37.33,3.71 -54.84,11.09"
         style="fill:#231f20;fill-opacity:1;fill-rule:nonzero;stroke:none"
         id="path140" />
      <path
         d="m 4577.25,1482.65 c -14.13,-14.63 -22.43,-33.86 -24.88,-57.85 h 157.08 c -2.13,23.99 -10.03,43.22 -23.72,57.85 -13.66,14.57 -31.53,21.86 -53.67,21.86 -22.41,0 -40.69,-7.29 -54.81,-21.86 z m 159.38,-81.81 h -184.7 c 1.82,-24.86 9.9,-44.9 24.16,-60.12 14.28,-15.17 33.09,-22.77 56.45,-22.77 28.53,0 51.29,13.05 68.19,39.14 l 21.18,-15.2 c -19.66,-33.75 -49.76,-50.68 -90.31,-50.68 -32.87,0 -59.26,11.39 -79.23,34.08 -19.96,22.76 -29.91,51.33 -29.91,85.71 0,34.39 9.95,62.94 29.91,85.67 19.97,22.76 46.36,34.11 79.23,34.11 31.93,0 57.52,-11 76.69,-32.95 19.21,-21.96 28.84,-50.27 28.84,-85 0,-5.21 -0.19,-9.18 -0.5,-11.99"
         style="fill:#231f20;fill-opacity:1;fill-rule:nonzero;stroke:none"
         id="path142" />
      <path
         d="m 4929.44,1519.7 -14.27,-22.13 c -8.57,4.05 -19.03,6.02 -31.32,6.02 -18.13,0 -33.99,-7.05 -47.68,-21.19 -13.66,-14.12 -20.47,-31.46 -20.47,-52.07 v -134.51 h -30.43 v 230.35 h 28.11 l 1.38,-37.78 c 8.29,12.89 18.67,23.17 31.07,30.88 12.47,7.64 25.6,11.51 39.43,11.51 18.74,0 33.44,-3.72 44.18,-11.08"
         style="fill:#231f20;fill-opacity:1;fill-rule:nonzero;stroke:none"
         id="path144" />
      <path
         d="m 5178.84,1526.17 -92.6,-230.35 h -29.48 l -92.13,230.35 h 32.69 l 74.66,-194.37 74.6,194.37 h 32.26"
         style="fill:#231f20;fill-opacity:1;fill-rule:nonzero;stroke:none"
         id="path146" />
      <path
         d="m 5344.88,1361.27 v 29.92 l -45.61,9.65 c -29.17,5.84 -50.51,4.88 -64.03,-2.95 -13.51,-7.85 -20.25,-19.47 -20.25,-34.82 0,-13.19 4.15,-23.93 12.43,-32.21 8.3,-8.3 19.33,-12.44 33.17,-12.44 28.26,0 56.32,14.27 84.29,42.85 z m 3.89,147.85 c 17.06,-14.42 25.6,-35.34 25.6,-62.66 v -150.64 h -27.17 l -1.42,37.77 c -29.15,-28.26 -59.71,-42.38 -91.65,-42.38 -20.58,0 -37.41,6.62 -50.45,19.82 -13.05,13.19 -19.58,30.14 -19.58,50.67 0,23.36 9.44,41.39 28.34,54.14 18.89,12.75 47.68,15.27 86.39,7.62 l 46.05,-8.77 v 33.16 c 0,19.02 -5.9,33.22 -17.73,42.59 -11.82,9.38 -27.25,14.07 -46.31,14.07 -32.22,0 -54.97,-11.84 -68.15,-35.47 l -21.2,18.45 c 17.81,28.83 48.19,43.29 91.19,43.29 27.03,0 49.09,-7.25 66.09,-21.66"
         style="fill:#231f20;fill-opacity:1;fill-rule:nonzero;stroke:none"
         id="path148" />
      <path
         d="m 5543.31,1306.87 c -10.46,-10.41 -24.44,-15.66 -41.92,-15.66 -18.42,0 -33.16,5.55 -44.23,16.6 -11.06,11.08 -16.57,25.49 -16.57,43.3 v 151.07 h -31.8 v 23.99 h 31.8 v 78.3 h 30.38 v -78.3 h 59.43 v -23.99 h -59.43 v -151.07 c 0,-10.74 2.78,-18.96 8.29,-24.67 5.54,-5.64 13.23,-8.49 23.03,-8.49 9.84,0 17.85,3.24 23.97,9.65 l 17.05,-20.73"
         style="fill:#231f20;fill-opacity:1;fill-rule:nonzero;stroke:none"
         id="path150" />
      <path
         d="m 5726.73,1345.12 c 14.87,17.81 22.34,39.78 22.34,65.88 0,26.38 -7.47,48.45 -22.34,66.1 -14.89,17.66 -34.5,26.49 -58.76,26.49 -24.25,0 -43.83,-8.83 -58.7,-26.49 -14.93,-17.65 -22.36,-39.72 -22.36,-66.1 0,-26.1 7.43,-48.07 22.36,-65.88 14.87,-17.8 34.45,-26.7 58.7,-26.7 24.26,0 43.87,8.9 58.76,26.7 z m -138.45,-19.3 c -20.57,22.97 -30.85,51.39 -30.85,85.18 0,33.78 10.28,62.22 30.85,85.21 20.59,23.06 47.15,34.57 79.69,34.57 32.58,0 59.22,-11.51 79.94,-34.57 20.72,-22.99 31.11,-51.43 31.11,-85.21 0,-33.79 -10.39,-62.21 -31.11,-85.18 -20.72,-23.09 -47.36,-34.61 -79.94,-34.61 -32.54,0 -59.1,11.52 -79.69,34.61"
         style="fill:#231f20;fill-opacity:1;fill-rule:nonzero;stroke:none"
         id="path152" />
      <path
         d="m 5964.3,1519.7 -14.26,-22.13 c -8.62,4.05 -19.04,6.02 -31.32,6.02 -18.14,0 -34.03,-7.05 -47.68,-21.19 -13.68,-14.12 -20.51,-31.46 -20.51,-52.07 v -134.51 h -30.42 v 230.35 h 28.1 l 1.38,-37.78 c 8.32,12.89 18.66,23.17 31.09,30.88 12.45,7.64 25.6,11.51 39.4,11.51 18.75,0 33.49,-3.72 44.22,-11.08"
         style="fill:#231f20;fill-opacity:1;fill-rule:nonzero;stroke:none"
         id="path154" />
      <path
         d="m 6192.94,1284.32 c 0,-31.61 -8.65,-57.35 -26.03,-77.17 -17.33,-19.83 -43.06,-29.69 -77.16,-29.69 -31.32,0 -58.35,8.42 -81.07,25.29 v 34.1 c 22.42,-21.48 50.07,-32.22 82.9,-32.22 24.3,0 42.18,7.07 53.67,21.19 11.54,14.14 17.3,33.63 17.3,58.5 v 45.17 c -8.61,-11.7 -19.42,-20.99 -32.47,-27.91 -13.05,-6.91 -27.1,-10.37 -42.17,-10.37 -25.2,0 -46.6,8.87 -64.27,26.52 -17.65,17.66 -26.49,39.07 -26.49,64.22 v 144.22 h 30.42 v -140.96 c 0,-18.43 6.46,-34.18 19.35,-47.22 12.9,-13.05 28.7,-19.57 47.45,-19.57 18.74,0 34.77,6.52 48.15,19.57 13.32,13.04 20.03,28.79 20.03,47.22 v 140.96 h 29.96 l 0.43,-241.85"
         style="fill:#231f20;fill-opacity:1;fill-rule:nonzero;stroke:none"
         id="path156" />
    </g>
  </g>
</svg>
