<?xml version="1.0" encoding="utf-8"?>
<!-- Generator: Adobe Adobe Illustrator 28.1.0, SVG Export Plug-In . SVG Version: 6.00 Build 0)  -->
<svg version="1.1" id="Layer_1" xmlns="http://www.w3.org/2000/svg" xmlns:xlink="http://www.w3.org/1999/xlink" x="0px" y="0px"
	 width="113.4px" height="113.4px" viewBox="0 0 113.4 113.4" style="enable-background:new 0 0 113.4 113.4;" xml:space="preserve"
	>
<style type="text/css">
	.st0{fill:#443F3F;}
</style>
<g>
	<g>
		<path class="st0" d="M0,0v113.4h113.4V0H0z M41.1,53L21.7,32.7h11.5l3.1,3.1c0.5-1.3,0.8-2.6,0.7-4c0.6-6.1-3.9-11.5-10.1-12.1
			c-6.1-0.6-11.5,3.9-12.1,10.1c-0.1,0.7-0.1,1.4,0,2.1c0,6.1,4.9,11,11,11c0,0,0.1,0,0.1,0c0.7,0,1.3,0,2-0.2c0.1,0,8,8.5,8,8.6
			c-2.3,1.6-6.6,2.4-10,2.4c-11.9,0-21.1-10.1-21.1-21.6C5,20.3,14.7,10.7,26.5,10.9c11.8,0.1,21.4,9.8,21.2,21.6
			c-0.1,4-1.3,7.9-3.4,11.3L44.2,44l8.9,9H41.1z M81.6,41.8c0,2.1-2.1,11.9-15.7,11.9c-13.6,0-16.2-9.9-16.2-12c0-1.3,0-30.4,0-30.4
			h10.5v29.2c0,0.7,0,3.4,5.6,3.4c5.4,0,5.4-2.7,5.4-3.3V13.4l10.4,10.9V41.8z M108.6,21.6h-8.4V53H89.4V21.6h-7.2l-9.9-10.3h36.3
			V21.6z"/>
	</g>
</g>
</svg>
